# xmcd
#
# Track frame offsets: 
#        150
#        19813
#        39273
#        53099
#        65263
#        81665
#        96523
#        109684
#        130932
#        147118
#
# Disc length: 2204 seconds
#
# Revision: 0
# Processed by: cddbd v1.5.2PL0 Copyright (c) Steve Scherf et al.
# Submitted via: ExactAudioCopy v0.99pb5
#
DISCID=86089a0a
DTITLE=Greg Nagy - Walk That Fine Thin Line
DYEAR=2009
DGENRE=Blues
TTITLE0=Walk That Fine Thin Line
TTITLE1=For the Love of a Woman
TTITLE2=Blues will Take Good Care of You
TTITLE3=Won't Cry
TTITLE4=M and O Blues
TTITLE5=Sunrise
TTITLE6=You can Love Yourself
TTITLE7=Not Falling in Love
TTITLE8=Jenny Jenny Jenny
TTITLE9=She's My Baby
EXTD=
EXTT0=
EXTT1=
EXTT2=
EXTT3=
EXTT4=
EXTT5=
EXTT6=
EXTT7=
EXTT8=
EXTT9=
PLAYORDER=
